<?xml version="1.0" encoding="UTF-8"?>
<svg width="46px" height="40px" viewBox="0 0 46 40" version="1.1" xmlns="http://www.w3.org/2000/svg" xmlns:xlink="http://www.w3.org/1999/xlink">
    <!-- Generator: Sketch 43.2 (39069) - http://www.bohemiancoding.com/sketch -->
    <title>Fill 3 Copy@3x</title>
    <desc>Created with Sketch.</desc>
    <defs></defs>
    <g id="home_320_1440" stroke="none" stroke-width="1" fill="none" fill-rule="evenodd">
        <g id="home_1440_01" transform="translate(-1243.000000, -155.000000)" fill="#4E84C4">
            <path d="M1263.54117,160.684543 C1264.20949,160.538589 1265.06985,161.022543 1264.93926,161.775361 L1264.93926,162.274679 L1264.90854,177.569173 L1266.45258,177.569173 L1266.45258,161.775361 C1266.32199,161.022543 1267.22076,160.538589 1267.88897,160.684543 C1269.4486,160.692225 1272.17553,160.922679 1275.25583,161.368225 C1277.35318,161.667816 1279.60385,162.074952 1281.76244,162.581952 C1280.54882,160.285089 1278.24417,158.318544 1275.25583,156.966545 C1272.52122,155.722091 1269.22572,155 1265.67672,155 C1262.14308,155 1258.85527,155.722091 1256.12822,156.951181 C1253.11695,158.310862 1250.79704,160.285089 1249.58332,162.604997 C1251.74959,162.090315 1254.01572,161.683179 1256.12822,161.375907 C1259.22399,160.922679 1261.97408,160.692225 1263.54117,160.684543 L1263.54117,160.684543 Z M1256.12822,175.625674 C1257.39572,176.20181 1258.78613,176.662719 1260.26104,176.993037 L1262.54254,166.000359 C1262.6424,165.247541 1262.73458,164.64836 1262.62704,163.811042 C1262.4734,163.250269 1262.01249,162.95836 1261.31345,162.850815 C1259.58504,162.927633 1257.85663,163.081269 1256.12822,163.288679 C1253.70077,163.580587 1251.281,163.980042 1248.88427,164.410224 C1248.72295,165.024769 1248.64613,165.654678 1248.64613,166.292268 C1248.64613,170.171585 1251.619,173.605356 1256.12822,175.625674 L1256.12822,175.625674 Z M1270.1167,162.850815 C1269.41787,162.95836 1268.95685,163.250269 1268.80322,163.811042 C1268.68799,164.64836 1268.78785,165.247541 1268.88772,166.000359 L1271.16143,176.977673 C1272.62876,176.647462 1274.00381,176.186446 1275.25583,175.617992 C1279.7497,173.582311 1282.7073,170.163903 1282.7073,166.292268 C1282.7073,165.646996 1282.6228,165.009405 1282.46917,164.39486 C1280.08012,163.964678 1277.67571,163.572906 1275.25583,163.288679 C1273.5429,163.081269 1271.82985,162.927633 1270.1167,162.850815 L1270.1167,162.850815 Z M1276.0318,183.215307 L1265.13899,183.215307 L1265.13899,186.464715 L1268.32694,186.464715 L1268.32694,194.5 L1272.83617,194.5 L1272.83617,186.464715 L1276.0318,186.464715 L1276.0318,183.215307 Z M1284.03626,183.215307 L1279.26574,183.215307 L1275.49408,193.086439 L1274.94856,194.5 L1279.35814,194.5 L1281.65489,187.747578 L1283.94407,194.5 L1288.35344,194.5 L1284.03626,183.215307 Z M1261.90495,183.215307 L1257.13454,183.215307 L1253.35509,193.086439 L1252.81736,194.5 L1257.21904,194.5 L1259.5159,187.747578 L1261.81277,194.5 L1266.21445,194.5 L1265.67672,193.086439 L1261.90495,183.215307 Z M1253.9005,183.215307 L1243,183.215307 L1243,186.464715 L1246.19564,186.464715 L1246.19564,194.5 L1250.70486,194.5 L1250.70486,186.464715 L1253.9005,186.464715 L1253.9005,183.215307 Z" id="Fill-3-Copy"></path>
        </g>
    </g>
</svg>