<?xml version="1.0" encoding="UTF-8"?>
<svg width="46px" height="40px" viewBox="0 0 46 40" version="1.1" xmlns="http://www.w3.org/2000/svg" xmlns:xlink="http://www.w3.org/1999/xlink">
    <!-- Generator: Sketch 43.2 (39069) - http://www.bohemiancoding.com/sketch -->
    <title>Fill 3@3x</title>
    <desc>Created with Sketch.</desc>
    <defs></defs>
    <g id="home_320_1440" stroke="none" stroke-width="1" fill="none" fill-rule="evenodd">
        <g id="home_1440_01" transform="translate(-1246.000000, -34.000000)" fill="#FFFFFF">
            <path d="M1266.84122,39.6845432 C1267.50954,39.5385887 1268.3699,40.022543 1268.23931,40.7753609 L1268.23931,41.2746789 L1268.20859,56.5691728 L1269.75263,56.5691728 L1269.75263,40.7753609 C1269.62204,40.022543 1270.52081,39.5385887 1271.18902,39.6845432 C1272.74864,39.692225 1275.47558,39.9226795 1278.55588,40.3682247 C1280.65323,40.6678155 1282.9039,41.0749517 1285.06249,41.5819515 C1283.84887,39.2850888 1281.54422,37.3185441 1278.55588,35.9665447 C1275.82126,34.7220906 1272.52577,34 1268.97677,34 C1265.44313,34 1262.15532,34.7220906 1259.42827,35.951181 C1256.417,37.3108623 1254.09709,39.2850888 1252.88336,41.604997 C1255.04964,41.0903153 1257.31577,40.6831791 1259.42827,40.3759065 C1262.52404,39.9226795 1265.27413,39.692225 1266.84122,39.6845432 L1266.84122,39.6845432 Z M1259.42827,54.6256736 C1260.69577,55.2018097 1262.08618,55.6627186 1263.56109,55.9930367 L1265.84259,45.0003592 C1265.94245,44.2475414 1266.03463,43.6483598 1265.92709,42.8110419 C1265.77345,42.2502694 1265.31254,41.9583605 1264.6135,41.850815 C1262.88509,41.9276332 1261.15668,42.0812695 1259.42827,42.2886785 C1257.00082,42.5805875 1254.58105,42.9800419 1252.18432,43.4102235 C1252.023,44.0247687 1251.94618,44.6546776 1251.94618,45.2922682 C1251.94618,49.1715848 1254.91905,52.6053562 1259.42827,54.6256736 L1259.42827,54.6256736 Z M1273.41675,41.850815 C1272.71792,41.9583605 1272.2569,42.2502694 1272.10327,42.8110419 C1271.98804,43.6483598 1272.0879,44.2475414 1272.18777,45.0003592 L1274.46148,55.977673 C1275.92881,55.6474617 1277.30385,55.1864461 1278.55588,54.6179918 C1283.04975,52.5823108 1286.00735,49.163903 1286.00735,45.2922682 C1286.00735,44.6469957 1285.92285,44.0094051 1285.76921,43.3948599 C1283.38017,42.9646782 1280.97576,42.5729057 1278.55588,42.2886785 C1276.84295,42.0812695 1275.1299,41.9276332 1273.41675,41.850815 L1273.41675,41.850815 Z M1279.33185,62.2153069 L1268.43904,62.2153069 L1268.43904,65.4647147 L1271.62699,65.4647147 L1271.62699,73.5 L1276.13622,73.5 L1276.13622,65.4647147 L1279.33185,65.4647147 L1279.33185,62.2153069 Z M1287.33631,62.2153069 L1282.56579,62.2153069 L1278.79413,72.0864393 L1278.24861,73.5 L1282.65819,73.5 L1284.95494,66.7475778 L1287.24412,73.5 L1291.65349,73.5 L1287.33631,62.2153069 Z M1265.205,62.2153069 L1260.43459,62.2153069 L1256.65514,72.0864393 L1256.11741,73.5 L1260.51909,73.5 L1262.81595,66.7475778 L1265.11281,73.5 L1269.51449,73.5 L1268.97677,72.0864393 L1265.205,62.2153069 Z M1257.20054,62.2153069 L1246.30005,62.2153069 L1246.30005,65.4647147 L1249.49568,65.4647147 L1249.49568,73.5 L1254.00491,73.5 L1254.00491,65.4647147 L1257.20054,65.4647147 L1257.20054,62.2153069 Z" id="Fill-3"></path>
        </g>
    </g>
</svg>